<?xml version="1.0" standalone="no"?>
<!DOCTYPE svg PUBLIC "-//W3C//DTD SVG 20010904//EN"
 "http://www.w3.org/TR/2001/REC-SVG-20010904/DTD/svg10.dtd">
<svg version="1.0" xmlns="http://www.w3.org/2000/svg"
 width="72.000000pt" height="72.000000pt" viewBox="0 0 72.000000 72.000000"
 preserveAspectRatio="xMidYMid meet">
<metadata>
Created by potrace 1.10, written by Peter Selinger 2001-2011
</metadata>
<g transform="translate(0.000000,72.000000) scale(0.100000,-0.100000)"
fill="#000000" stroke="none">
<path d="M0 410 c0 -290 1 -312 20 -342 10 -17 29 -38 42 -45 l23 -12 -26 -1
c-30 0 -45 14 -52 50 -3 16 -5 10 -6 -17 l-1 -43 360 0 360 0 -1 43 c-1 27 -3
33 -6 17 -7 -36 -22 -50 -52 -50 l-26 1 23 12 c13 7 32 28 43 46 18 30 19 51
19 342 l-1 309 -42 -1 c-28 -2 -33 -3 -15 -6 34 -5 51 -26 45 -55 l-4 -23 -8
22 c-4 12 -23 31 -42 43 -32 19 -51 20 -293 20 -240 0 -262 -1 -292 -20 -17
-10 -38 -29 -45 -42 l-12 -23 -1 26 c0 29 13 44 45 52 12 3 4 5 -17 6 l-38 1
0 -310z m221 201 c37 -38 38 -74 1 -110 -27 -27 -27 -28 -7 -37 18 -8 20 -20
23 -111 3 -130 22 -137 22 -9 0 113 8 126 78 126 26 0 54 -4 62 -10 9 -6 19
-5 28 3 26 21 114 14 151 -12 54 -38 71 -94 71 -227 0 -135 -10 -154 -83 -154
-67 0 -77 16 -78 140 -1 109 -8 129 -45 122 -28 -5 -34 -26 -34 -137 -1 -110
-9 -125 -74 -125 -35 0 -49 5 -58 20 -16 25 -30 25 -53 0 -24 -27 -95 -28
-119 -1 -14 16 -16 41 -14 192 3 166 4 174 24 183 21 9 21 10 -7 34 -39 32
-39 74 0 113 18 17 40 29 56 29 16 0 38 -12 56 -29z"/>
<path d="M120 600 c-26 -26 -26 -64 0 -90 27 -27 56 -25 85 5 30 29 31 45 4
79 -25 31 -61 34 -89 6z"/>
<path d="M444 446 c-18 -8 -37 -22 -43 -33 -9 -16 -10 -15 -11 10 0 26 -2 27
-52 27 l-53 0 0 -175 0 -175 53 0 52 0 0 110 c0 97 2 112 20 130 25 25 62 26
83 2 14 -15 17 -40 17 -130 l0 -112 55 0 55 0 0 125 c0 138 -11 182 -53 210
-35 23 -87 27 -123 11z"/>
<path d="M110 275 l0 -175 55 0 55 0 0 175 0 175 -55 0 -55 0 0 -175z"/>
<path d="M246 214 c-8 -22 -7 -34 3 -34 5 0 9 11 9 25 0 29 -3 31 -12 9z"/>
<path d="M240 150 c0 -5 5 -10 11 -10 5 0 7 5 4 10 -3 6 -8 10 -11 10 -2 0 -4
-4 -4 -10z"/>
</g>
</svg>
