<?xml version="1.0" standalone="no"?>
<!DOCTYPE svg PUBLIC "-//W3C//DTD SVG 20010904//EN"
 "http://www.w3.org/TR/2001/REC-SVG-20010904/DTD/svg10.dtd">
<svg version="1.0" xmlns="http://www.w3.org/2000/svg"
 width="72.000000pt" height="72.000000pt" viewBox="0 0 72.000000 72.000000"
 preserveAspectRatio="xMidYMid meet">
<metadata>
Created by potrace 1.10, written by Peter Selinger 2001-2011
</metadata>
<g transform="translate(0.000000,72.000000) scale(0.100000,-0.100000)"
fill="#000000" stroke="none">
<path d="M26 694 c-9 -8 -16 -25 -16 -37 0 -19 3 -18 35 13 19 19 35 35 35 37
0 10 -41 0 -54 -13z"/>
<path d="M670 675 c19 -19 35 -35 37 -35 2 0 3 9 3 19 0 26 -26 51 -53 51 -19
0 -18 -3 13 -35z"/>
<path d="M113 631 c-41 -26 -52 -74 -29 -123 13 -27 14 -41 6 -62 -15 -40 -13
-315 3 -346 11 -21 20 -25 68 -28 41 -2 59 1 69 13 16 19 34 19 50 0 8 -10 30
-15 61 -15 67 0 79 19 79 132 0 66 4 90 16 103 31 31 44 2 44 -99 0 -119 10
-136 84 -136 81 0 86 10 86 168 0 72 -4 142 -10 157 -26 70 -119 111 -191 86
-18 -6 -54 -8 -84 -5 -41 5 -60 2 -83 -12 -25 -14 -33 -15 -46 -5 -14 12 -14
15 0 36 60 91 -32 193 -123 136z m97 -33 c25 -28 25 -48 -1 -82 -25 -31 -61
-34 -89 -6 -26 26 -26 64 0 90 26 26 64 25 90 -2z m341 -153 c58 -30 69 -65
69 -212 l0 -133 -55 0 -55 0 0 112 c0 90 -3 115 -17 130 -21 24 -58 23 -83 -2
-18 -18 -20 -33 -20 -130 l0 -110 -52 0 -53 0 0 175 0 175 53 0 c50 0 52 -1
53 -27 0 -16 3 -22 6 -15 8 21 65 52 96 52 15 0 41 -7 58 -15z m-331 -170 l0
-175 -55 0 -55 0 0 175 0 175 55 0 55 0 0 -175z"/>
<path d="M10 61 c0 -26 26 -51 53 -51 19 0 18 3 -13 35 -19 19 -35 35 -37 35
-2 0 -3 -9 -3 -19z"/>
<path d="M670 45 c-31 -32 -32 -35 -13 -35 27 0 53 25 53 51 0 10 -1 19 -3 19
-2 0 -18 -16 -37 -35z"/>
</g>
</svg>
